# xmcd CD database file generated by Grip 2.94
# 
# Track frame offsets:
#       150
#       22660
#       48720
# 
# Disc length: 890 seconds
# 
# Revision: 3
# Processed by: cddbd v1.4b41PL1 Copyright (c) Steve Scherf et al.
# Submitted via: Grip 2.94
# 
DISCID=1a037803
DTITLE=B. B. King - Deuces Wild - Promo
DYEAR=1900
DGENRE=
TTITLE0=The Thrill Is Gone (With Tracy Chapman)
TTITLE1=If You Love Me (With Van Morrison)
TTITLE2=Baby I Love You (With Bonnie Raitt)
EXTD=
EXTT0=
EXTT1=
EXTT2=
PLAYORDER=
